<?xml version="1.0" encoding="UTF-8" standalone="no"?>
<!-- Generator: Adobe Illustrator 18.1.1, SVG Export Plug-In . SVG Version: 6.00 Build 0)  -->

<svg
   xmlns:dc="http://purl.org/dc/elements/1.1/"
   xmlns:cc="http://creativecommons.org/ns#"
   xmlns:rdf="http://www.w3.org/1999/02/22-rdf-syntax-ns#"
   xmlns:svg="http://www.w3.org/2000/svg"
   xmlns="http://www.w3.org/2000/svg"
   xmlns:sodipodi="http://sodipodi.sourceforge.net/DTD/sodipodi-0.dtd"
   xmlns:inkscape="http://www.inkscape.org/namespaces/inkscape"
   version="1.1"
   id="Capa_1"
   x="0px"
   y="0px"
   viewBox="0 0 25.588 25.588"
   style="enable-background:new 0 0 25.588 25.588;"
   xml:space="preserve"
   width="512px"
   height="512px"
   sodipodi:docname="icon.svg"
   inkscape:version="0.92.1 r15371"><metadata
     id="metadata41"><rdf:RDF><cc:Work
         rdf:about=""><dc:format>image/svg+xml</dc:format><dc:type
           rdf:resource="http://purl.org/dc/dcmitype/StillImage" /></cc:Work></rdf:RDF></metadata><defs
     id="defs39" /><sodipodi:namedview
     pagecolor="#ffffff"
     bordercolor="#666666"
     borderopacity="1"
     objecttolerance="10"
     gridtolerance="10"
     guidetolerance="10"
     inkscape:pageopacity="0"
     inkscape:pageshadow="2"
     inkscape:window-width="1224"
     inkscape:window-height="1038"
     id="namedview37"
     showgrid="false"
     inkscape:zoom="0.4609375"
     inkscape:cx="256"
     inkscape:cy="256"
     inkscape:window-x="1583"
     inkscape:window-y="51"
     inkscape:window-maximized="0"
     inkscape:current-layer="Capa_1" /><g
     id="g4"
     transform="matrix(0.96896334,0,0,0.96896334,0.39715994,0.39701391)"><path
       d="m 18.724,9.903 3.855,1.416 -3.206,8.729 c -0.3,0.821 -1.927,3.39 -3.06,3.914 l -0.275,0.75 c -0.07,0.19 -0.25,0.309 -0.441,0.309 -0.054,0 -0.108,-0.01 -0.162,-0.029 -0.243,-0.09 -0.369,-0.359 -0.279,-0.604 l 0.26,-0.709 C 14.841,22.562 15.27,19.318 15.522,18.632 Z M 24.303,0.667 C 23.243,0.279 22.002,1.081 21.647,2.05 L 19.325,8.376 23.179,9.79 25.498,3.465 C 25.79,2.673 25.365,1.056 24.303,0.667 Z m -6.975,8.909 c 0.108,0.04 0.219,0.059 0.327,0.059 0.382,0 0.741,-0.234 0.882,-0.614 l 2.45,-6.608 C 21.168,1.926 20.919,1.385 20.432,1.205 19.941,1.027 19.404,1.273 19.223,1.76 l -2.45,6.608 c -0.181,0.487 0.068,1.028 0.555,1.208 z M 13.384,21.967 C 13.131,21.728 12.816,21.43 12.306,21.203 11.886,21.016 11.477,21.007 11.178,21 c -0.031,0 -0.067,-0.001 -0.103,-0.002 -0.187,-0.512 -0.566,-0.834 -1.135,-0.96 -0.753,-0.159 -1.354,0.196 -1.771,0.47 0.037,-0.21 0.098,-0.46 0.143,-0.64 0.144,-0.58 0.292,-1.18 0.182,-1.742 C 8.407,17.682 8.032,17.352 7.58,17.32 6.415,17.255 5.463,17.882 4.624,18.449 3.743,19.044 3.178,19.399 2.616,19.198 1.93,18.954 1.861,17.097 2.191,15.443 2.486,13.953 3.035,11.179 4.442,9.919 4.916,9.495 5.602,9.036 6.166,9.259 c 0.663,0.26 1.211,1.352 1.333,2.653 0.051,0.549 0.53,0.952 1.089,0.902 C 9.138,12.763 9.542,12.275 9.49,11.725 9.292,9.605 8.298,7.947 6.897,7.396 6.058,7.07 4.724,6.982 3.107,8.429 c -1.759,1.575 -2.409,4.246 -2.88,6.625 -0.236,1.188 -0.811,5.13 1.717,6.029 1.54,0.549 2.791,-0.298 3.796,-0.976 0.184,-0.124 0.365,-0.246 0.541,-0.355 -0.167,0.725 -0.271,1.501 0.167,2.155 0.653,0.982 1.576,1.089 2.742,0.321 0.045,-0.029 0.097,-0.063 0.146,-0.097 0.108,0.226 0.299,0.475 0.646,0.645 0.42,0.206 0.84,0.216 1.146,0.224 0.131,0.003 0.31,0.007 0.364,0.031 0.188,0.083 0.299,0.185 0.515,0.389 0.162,0.153 0.333,0.312 0.55,0.476 0.18,0.135 0.39,0.199 0.598,0.199 0.304,0 0.605,-0.139 0.801,-0.4 0.331,-0.442 0.241,-1.069 -0.201,-1.4 -0.145,-0.112 -0.26,-0.223 -0.371,-0.328 z"
       id="path2"
       inkscape:connector-curvature="0"
       style="fill:#003399" /></g><g
     id="g6" /><g
     id="g8" /><g
     id="g10" /><g
     id="g12" /><g
     id="g14" /><g
     id="g16" /><g
     id="g18" /><g
     id="g20" /><g
     id="g22" /><g
     id="g24" /><g
     id="g26" /><g
     id="g28" /><g
     id="g30" /><g
     id="g32" /><g
     id="g34" /></svg>